<svg width="171" height="24" viewBox="0 0 171 24" fill="none" xmlns="http://www.w3.org/2000/svg">
<g clip-path="url(#clip0)">
<path d="M40.9672 5.93116C39.2314 5.93116 38.1938 6.77664 38.1874 7.92956C38.1745 9.21058 39.5388 9.74221 40.7942 10.0432L42.2354 10.4019C44.5412 10.9464 46.7382 12.1633 46.7446 14.8215C46.7382 17.5244 44.5989 19.3627 40.9223 19.3627C37.3483 19.3627 35.0745 17.6461 34.9656 14.5973H37.7006C37.8159 16.2114 39.1609 16.9864 40.9031 16.9864C42.7158 16.9864 43.9584 16.1089 43.9648 14.7959C43.9584 13.6045 42.8631 13.0857 41.2042 12.6694L39.4556 12.221C36.9319 11.5677 35.3627 10.2995 35.3627 8.1025C35.3563 5.38672 37.7774 3.57407 40.9992 3.57407C44.2658 3.57407 46.4756 5.41234 46.5268 8.00001H43.8495C43.715 6.70618 42.6197 5.93116 40.9672 5.93116Z" fill="white"/>
<path d="M54.104 9.72299H51.8366V15.6733C51.8366 16.7686 52.3811 17.0056 53.0664 17.0056C53.4059 17.0056 53.7133 16.9352 53.8606 16.9031L54.3154 19.0232C54.0208 19.1193 53.4892 19.273 52.7205 19.2922C50.6837 19.3499 49.108 18.2866 49.1209 16.1217V9.72299H47.4875V7.62211H49.1209V4.8679H51.8366V7.62851H54.104V9.72299V9.72299Z" fill="white"/>
<path d="M54.719 13.4444C54.719 9.88954 56.8711 7.47481 60.1698 7.47481C63.0008 7.47481 65.4284 9.24903 65.4284 13.2907V14.1233H57.4091C57.4284 16.0961 58.5941 17.249 60.3491 17.249C61.5212 17.249 62.4179 16.7366 62.783 15.763L65.3131 16.0449C64.8327 18.0433 62.988 19.3563 60.3043 19.3563C56.8391 19.3627 54.719 17.0569 54.719 13.4444ZM62.8279 12.2915C62.8151 10.7222 61.7646 9.5885 60.2082 9.5885C58.5877 9.5885 57.5052 10.8247 57.422 12.2915H62.8279Z" fill="white"/>
<path d="M66.3379 15.9039C66.3379 13.3099 68.4708 12.6437 70.7062 12.4067C72.7366 12.189 73.5565 12.1505 73.5565 11.3755V11.3307C73.5565 10.197 72.8647 9.55647 71.6093 9.55647C70.2834 9.55647 69.5212 10.229 69.2458 11.0168L66.7158 10.6581C67.3179 8.55727 69.1754 7.48121 71.5965 7.48121C73.7935 7.48121 76.2722 8.39714 76.2722 11.4396V19.1449H73.6589V17.5629H73.5693C73.0761 18.53 71.9936 19.3755 70.1874 19.3755C67.9904 19.3691 66.3379 18.1714 66.3379 15.9039ZM73.5629 15.0072V13.6493C73.2106 13.9312 71.7887 14.1169 71.0777 14.213C69.8607 14.3859 68.9576 14.8215 68.9576 15.8591C68.9576 16.8583 69.7646 17.3707 70.8983 17.3707C72.5252 17.3771 73.5629 16.2883 73.5629 15.0072Z" fill="white"/>
<path d="M77.7327 7.62213H80.3267V9.57569H80.4613C80.9416 8.26264 82.0946 7.46841 83.6382 7.46841C85.1882 7.46841 86.3091 8.26905 86.7511 9.57569H86.8728C87.3852 8.29467 88.6534 7.46841 90.3251 7.46841C92.4388 7.46841 93.9248 8.8327 93.9248 11.4012V19.1257H91.2026V11.8303C91.2026 10.4084 90.3316 9.76144 89.2363 9.76144C87.9232 9.76144 87.1546 10.6582 87.1546 11.9584V19.1385H84.4965V11.715C84.4965 10.5301 83.7086 9.76144 82.5621 9.76144C81.3964 9.76144 80.4484 10.7222 80.4484 12.1377V19.1385H77.7327V7.62213V7.62213Z" fill="white"/>
<path d="M96.4805 3.78546H97.8832V17.8703H105.198V19.1321H96.4805V3.78546Z" fill="white"/>
<path d="M105.544 13.4316C105.544 9.90235 107.625 7.46841 110.61 7.46841C113.595 7.46841 115.677 9.90235 115.677 13.4316C115.677 16.9416 113.595 19.3755 110.61 19.3755C107.625 19.3755 105.544 16.9416 105.544 13.4316ZM114.338 13.4316C114.338 10.8567 113.006 8.67898 110.617 8.67898C108.227 8.67898 106.895 10.8503 106.895 13.4316C106.895 16.0128 108.227 18.1522 110.617 18.1522C113.006 18.1522 114.338 16.0128 114.338 13.4316Z" fill="white"/>
<path d="M117.457 21.3803L118.553 20.663C119.039 21.5405 119.981 22.4884 121.954 22.4884C123.99 22.4884 125.361 21.4892 125.361 19.3499V16.7558H125.239C124.785 17.8127 123.773 19.0104 121.704 19.0104C118.943 19.0104 116.97 16.8775 116.97 13.3483C116.97 9.85111 118.879 7.46841 121.729 7.46841C123.843 7.46841 124.791 8.78786 125.265 9.81909H125.4V7.62213H126.706V19.4332C126.706 22.3539 124.682 23.6926 121.954 23.6926C119.603 23.6926 118.136 22.6998 117.457 21.3803ZM125.387 13.3291C125.387 10.6325 124.119 8.68538 121.864 8.68538C119.558 8.68538 118.309 10.7414 118.309 13.3291C118.309 15.968 119.577 17.7935 121.864 17.7935C124.087 17.7935 125.387 16.1089 125.387 13.3291Z" fill="white"/>
<path d="M128.57 4.68857C128.57 4.16335 129.018 3.7278 129.569 3.7278C130.114 3.7278 130.575 4.16335 130.575 4.68857C130.575 5.21379 130.12 5.64934 129.569 5.64934C129.018 5.64934 128.57 5.21379 128.57 4.68857ZM128.884 7.62211H130.223V19.1321H128.884V7.62211Z" fill="white"/>
<path d="M138.908 10.498C138.549 9.4668 137.787 8.64694 136.231 8.64694C134.68 8.64694 133.566 9.4668 133.566 10.6325C133.566 11.6317 134.232 12.2082 135.667 12.5669L137.403 12.996C139.331 13.47 140.298 14.4948 140.298 16.032C140.298 17.9856 138.562 19.3819 136.026 19.3819C133.771 19.3819 132.247 18.3379 131.843 16.4228L133.124 16.1089C133.444 17.4732 134.431 18.1842 136 18.1842C137.768 18.1842 138.914 17.2939 138.914 16.0961C138.914 15.1738 138.306 14.5204 137.044 14.2258L135.161 13.7774C133.162 13.2971 132.221 12.2466 132.221 10.703C132.221 8.80707 133.905 7.48121 136.231 7.48121C138.338 7.48121 139.568 8.49962 140.125 10.165L138.908 10.498Z" fill="white"/>
<path d="M146.588 8.78784H144.154V16.1345C144.154 17.5821 144.986 18.0048 145.889 18.0048C146.242 18.0048 146.479 17.9536 146.671 17.9023L146.953 19.1065C146.697 19.2026 146.325 19.3115 145.768 19.3115C144.295 19.3115 142.809 18.3315 142.809 16.4484V8.78784H141.092V7.62211H142.809V4.8679H144.147V7.62851H146.581V8.78784H146.588Z" fill="white"/>
<path d="M148.048 4.68857C148.048 4.16335 148.496 3.7278 149.047 3.7278C149.592 3.7278 150.053 4.16335 150.053 4.68857C150.053 5.21379 149.598 5.64934 149.047 5.64934C148.496 5.64934 148.048 5.21379 148.048 4.68857ZM148.362 7.62211H149.701V19.1321H148.362V7.62211Z" fill="white"/>
<path d="M151.276 13.4316C151.276 9.9664 153.332 7.46841 156.343 7.46841C158.648 7.46841 160.435 8.90956 160.749 11.0425H159.398C159.116 9.73582 158.002 8.68538 156.362 8.68538C154.152 8.68538 152.615 10.6069 152.615 13.3931C152.615 16.1986 154.107 18.1586 156.362 18.1586C157.893 18.1586 159.097 17.249 159.404 15.7823H160.756C160.448 17.8639 158.764 19.3819 156.362 19.3819C153.268 19.3755 151.276 16.8647 151.276 13.4316Z" fill="white"/>
<path d="M168.749 10.498C168.391 9.4668 167.622 8.64694 166.072 8.64694C164.522 8.64694 163.408 9.4668 163.408 10.6325C163.408 11.6317 164.074 12.2082 165.508 12.5669L167.244 12.996C169.172 13.47 170.139 14.4948 170.139 16.032C170.139 17.9856 168.404 19.3819 165.867 19.3819C163.613 19.3819 162.088 18.3379 161.685 16.4228L162.966 16.1089C163.286 17.4732 164.272 18.1842 165.842 18.1842C167.609 18.1842 168.756 17.2939 168.756 16.0961C168.756 15.1738 168.147 14.5204 166.886 14.2258L165.002 13.7774C163.004 13.2971 162.062 12.2466 162.062 10.703C162.062 8.80707 163.747 7.48121 166.072 7.48121C168.179 7.48121 169.409 8.49962 169.966 10.165L168.749 10.498Z" fill="white"/>
<path d="M9.87681 16L26.4725 0H10.4725L1.28113 8.86469C-1.40902 11.4588 0.429252 16 4.16344 16H9.87681Z" fill="#FFA400"/>
<path d="M22.5718 8L5.97607 24H7.46206L24.0641 8H22.5718Z" fill="#FFA400"/>
<path d="M25.4988 8L8.89673 24H10.3891L26.767 8.21137C26.3763 8.08327 25.9472 8.00641 25.4988 8Z" fill="#FFA400"/>
<path d="M27.7151 8.67892L11.8176 24H13.31L28.4966 9.35787C28.266 9.10807 28.0034 8.87748 27.7151 8.67892Z" fill="#FFA400"/>
<path d="M29.0729 10.1905L14.7446 24H16.237L29.4636 11.2474C29.3803 10.8759 29.2458 10.5236 29.0729 10.1905Z" fill="#FFA400"/>
<path d="M17.6655 24H19.0939L28.2916 15.1353C29.0731 14.3795 29.4702 13.4636 29.5534 12.5412L17.6655 24Z" fill="#FFA400"/>
<path d="M19.6958 8L3.09375 24H4.54131L21.1434 8H19.6958Z" fill="#FFA400"/>
</g>
<defs>
<clipPath id="clip0">
<rect width="170.139" height="24" fill="white"/>
</clipPath>
</defs>
</svg>
